# Blender 3.4.1
# www.blender.org
mtllib wall.mtl
o Cube
v -0.500000 10.000000 -10.000000
v -0.500000 0.000000 -10.000000
v 0.500000 10.000000 -10.000000
v 0.500000 0.000000 -10.000000
v -0.500000 10.000000 10.000000
v -0.500000 0.000000 10.000000
v 0.500000 10.000000 10.000000
v 0.500000 0.000000 10.000000
v 0.000000 0.000000 10.000000
v -0.500000 0.000000 0.000000
v -0.500000 5.000000 -10.000000
v 0.500000 5.000000 10.000000
v 0.500000 5.000000 -10.000000
v -0.500000 5.000000 10.000000
v 0.500000 10.000000 -0.000000
v -0.000000 10.000000 -10.000000
v 0.500000 0.000000 -0.000000
v 0.000000 10.000000 10.000000
v -0.500000 10.000000 0.000000
v -0.000000 0.000000 -10.000000
v -0.500000 5.000000 0.000000
v -0.000000 5.000000 -10.000000
v 0.000000 0.000000 0.000000
v 0.000000 5.000000 10.000000
v 0.500000 5.000000 -0.000000
v 0.000000 10.000000 0.000000
v 0.250000 0.000000 10.000000
v -0.500000 0.000000 5.000000
v -0.500000 2.500000 -10.000000
v 0.500000 7.500000 10.000000
v 0.500000 2.500000 -10.000000
v -0.500000 2.500000 10.000000
v 0.500000 10.000000 5.000000
v 0.250000 10.000000 -10.000000
v 0.500000 0.000000 -5.000000
v -0.250000 10.000000 10.000000
v -0.500000 10.000000 -5.000000
v -0.250000 0.000000 -10.000000
v -0.250000 0.000000 10.000000
v -0.500000 0.000000 -5.000000
v -0.500000 7.500000 -10.000000
v 0.500000 2.500000 10.000000
v 0.500000 7.500000 -10.000000
v -0.500000 7.500000 10.000000
v 0.500000 10.000000 -5.000000
v -0.250000 10.000000 -10.000000
v 0.500000 0.000000 5.000000
v 0.250000 10.000000 10.000000
v -0.500000 10.000000 5.000000
v 0.250000 0.000000 -10.000000
v -0.500000 5.000000 -5.000000
v -0.500000 5.000000 5.000000
v -0.500000 2.500000 0.000000
v -0.500000 7.500000 0.000000
v 0.250000 5.000000 -10.000000
v -0.250000 5.000000 -10.000000
v -0.000000 2.500000 -10.000000
v -0.000000 7.500000 -10.000000
v 0.250000 0.000000 -0.000000
v -0.250000 0.000000 0.000000
v 0.000000 0.000000 5.000000
v -0.000000 0.000000 -5.000000
v -0.250000 5.000000 10.000000
v 0.250000 5.000000 10.000000
v 0.000000 2.500000 10.000000
v 0.000000 7.500000 10.000000
v 0.500000 5.000000 5.000000
v 0.500000 5.000000 -5.000000
v 0.500000 2.500000 -0.000000
v 0.500000 7.500000 -0.000000
v 0.250000 10.000000 -0.000000
v -0.250000 10.000000 0.000000
v -0.000000 10.000000 -5.000000
v 0.000000 10.000000 5.000000
v -0.250000 10.000000 5.000000
v -0.250000 10.000000 -5.000000
v 0.250000 10.000000 -5.000000
v 0.500000 7.500000 -5.000000
v 0.500000 2.500000 -5.000000
v 0.500000 2.500000 5.000000
v 0.250000 7.500000 10.000000
v 0.250000 2.500000 10.000000
v -0.250000 2.500000 10.000000
v -0.250000 0.000000 -5.000000
v -0.250000 0.000000 5.000000
v 0.250000 0.000000 5.000000
v -0.250000 7.500000 -10.000000
v -0.250000 2.500000 -10.000000
v 0.250000 2.500000 -10.000000
v -0.500000 7.500000 5.000000
v -0.500000 2.500000 5.000000
v -0.500000 2.500000 -5.000000
v -0.500000 7.500000 -5.000000
v 0.250000 7.500000 -10.000000
v 0.250000 0.000000 -5.000000
v -0.250000 7.500000 10.000000
v 0.500000 7.500000 5.000000
v 0.250000 10.000000 5.000000
vn 1.0000 -0.0000 -0.0000
vn -1.0000 -0.0000 -0.0000
vn -0.0000 -0.0000 1.0000
vn -0.0000 1.0000 -0.0000
vn -0.0000 -1.0000 -0.0000
vn -0.0000 -0.0000 -1.0000
vt 2.997686 -1.997686
vt -0.002070 0.500000
vt 2.997686 1.997687
vt -0.002070 1.504139
vt -0.989115 -1.986063
vt 1.002070 0.500000
vt -0.989115 1.992168
vt 1.002070 1.504139
vt 1.002070 -1.508279
vt -0.997686 -1.997687
vt -0.002070 -0.504139
vt 1.002070 -0.504139
vt -0.002070 2.508279
vt -0.997687 1.997686
vt 2.989115 -1.986062
vt -0.002069 -1.508279
vt 1.002070 -0.504139
vt 2.989115 1.992168
vt -0.002070 -0.504139
vt 1.002069 2.508279
vt 0.500000 -0.504139
vt 0.500000 2.508279
vt -0.002070 2.006209
vt 1.000000 1.997686
vt 2.997686 0.000000
vt -0.002070 1.002070
vt -0.002070 -1.006209
vt 2.989115 0.003053
vt -0.989115 0.003053
vt 1.002070 1.002070
vt -0.997686 -0.000000
vt 1.002070 -1.006209
vt 1.002070 -0.002070
vt 1.000000 -1.986063
vt 0.500000 0.500000
vt 1.000000 1.992168
vt 1.002070 2.006209
vt 0.500000 -1.508279
vt 0.500000 -0.504139
vt -0.002070 -0.002070
vt 1.000000 -1.997686
vt 0.500000 1.504139
vt 1.000000 0.000000
vt 0.500000 1.002070
vt 0.500000 2.006209
vt 0.500000 -1.006209
vt 1.000000 0.003053
vt 0.500000 -0.002070
vt 0.248965 -0.504139
vt 0.751035 2.508279
vt -0.002070 2.257244
vt 0.001157 1.997686
vt 2.997686 0.998843
vt -0.002070 1.253104
vt -0.002069 -1.257244
vt 2.989115 -0.991504
vt -0.989115 0.997611
vt 1.002070 1.253105
vt -0.997686 0.998843
vt 1.002070 -0.755174
vt 1.994558 -1.986062
vt 1.002070 -0.253104
vt 0.751035 0.500000
vt 0.005442 1.992168
vt 1.002070 1.755174
vt 0.751035 -1.508279
vt 0.248965 -0.504139
vt -0.002070 0.248965
vt 1.998843 -1.997686
vt 0.248965 1.504139
vt 0.751035 -0.504139
vt 0.248965 2.508279
vt 1.998843 1.997686
vt -0.002070 1.755174
vt 2.997686 -0.998843
vt -0.002070 0.751035
vt 2.989115 0.997611
vt -0.002070 -0.755174
vt -0.989115 -0.991505
vt 1.002070 0.751035
vt 1.002070 -1.257244
vt -0.997686 -0.998843
vt 0.005443 -1.986063
vt 1.002070 0.248965
vt 0.248965 0.500000
vt 1.994558 1.992168
vt 1.002070 2.257244
vt 0.248965 -1.508279
vt 0.751035 -0.504139
vt 0.001157 -1.997686
vt -0.002070 -0.253105
vt 0.751035 1.504139
vt 1.998843 0.000000
vt 0.001157 0.000000
vt 1.000000 0.998843
vt 1.000000 -0.998843
vt 0.751035 1.002070
vt 0.248965 1.002070
vt 0.500000 1.253105
vt 0.500000 0.751035
vt 0.751035 2.006209
vt 0.248965 2.006209
vt 0.500000 2.257244
vt 0.500000 1.755174
vt 0.751035 -1.006209
vt 0.248965 -1.006209
vt 0.500000 -0.755174
vt 0.500000 -1.257244
vt 1.994558 0.003053
vt 0.005442 0.003053
vt 1.000000 0.997611
vt 1.000000 -0.991505
vt 0.751035 -0.002070
vt 0.248965 -0.002070
vt 0.500000 0.248965
vt 0.500000 -0.253105
vt 0.248965 -0.253105
vt 0.248965 0.248965
vt 0.751035 0.248965
vt 0.005442 -0.991505
vt 0.005442 0.997611
vt 1.994558 0.997611
vt 0.248965 -1.257244
vt 0.248965 -0.755174
vt 0.751035 -0.755174
vt 0.248965 1.755174
vt 0.248965 2.257244
vt 0.751035 2.257244
vt 0.248965 0.751035
vt 0.248965 1.253105
vt 0.751035 1.253105
vt 0.001157 -0.998843
vt 0.001157 0.998843
vt 1.998843 0.998843
vt 1.998843 -0.998843
vt 0.751035 0.751035
vt 0.751035 1.755174
vt 0.751035 -1.257244
vt 1.994558 -0.991505
vt 0.751035 -0.253105
s 0
usemtl Material
f 97/139/1 33/61/1 7/15/1 30/56/1
f 93/135/2 37/69/2 1/1/2 41/75/2
f 92/134/2 51/93/2 11/25/2 29/53/2
f 91/133/2 52/94/2 21/43/2 53/95/2
f 90/132/2 49/90/2 19/41/2 54/96/2
f 80/122/1 67/109/1 12/28/1 42/77/1
f 79/121/1 68/110/1 25/47/1 69/111/1
f 78/120/1 45/83/1 15/34/1 70/112/1
f 36/66/3 5/9/3 44/81/3 96/138/3 66/108/3 81/123/3 30/55/3 7/16/3 48/88/3 18/38/3
f 75/117/4 74/116/4 98/140/4 33/62/4 15/33/4 71/113/4 26/48/4 72/114/4 19/40/4 49/91/4
f 71/113/4 15/33/4 45/84/4 77/119/4 73/115/4 76/118/4 37/68/4 19/40/4 72/114/4 26/48/4
f 68/110/1 78/120/1 70/112/1 25/47/1
f 13/29/1 43/79/1 78/120/1 68/110/1
f 43/79/1 3/5/1 45/83/1 78/120/1
f 35/64/1 79/121/1 69/111/1 17/36/1
f 4/7/1 31/57/1 79/121/1 35/64/1
f 31/57/1 13/29/1 68/110/1 79/121/1
f 47/86/1 80/122/1 42/77/1 8/18/1
f 17/36/1 69/111/1 80/122/1 47/86/1
f 69/111/1 25/47/1 67/109/1 80/122/1
f 81/123/3 66/108/3 96/138/3 44/81/3 14/32/3 63/105/3 24/46/3 64/106/3 12/27/3 30/55/3
f 82/124/3 65/107/3 83/125/3 32/60/3 6/12/3 39/71/3 9/21/3 27/49/3 8/19/3 42/78/3
f 85/127/5 61/103/5 86/128/5 47/87/5 8/20/5 27/50/5 9/22/5 39/72/5 6/13/5 28/51/5
f 84/126/5 62/104/5 95/137/5 35/65/5 17/37/5 59/101/5 23/45/5 60/102/5 10/23/5 40/74/5
f 59/101/5 17/37/5 47/87/5 86/128/5 61/103/5 85/127/5 28/51/5 10/23/5 60/102/5 23/45/5
f 87/129/6 58/100/6 94/136/6 43/80/6 13/30/6 55/97/6 22/44/6 56/98/6 11/26/6 41/76/6
f 88/130/6 57/99/6 89/131/6 31/58/6 4/8/6 50/92/6 20/42/6 38/70/6 2/4/6 29/54/6
f 76/118/4 73/115/4 77/119/4 45/84/4 3/6/4 34/63/4 16/35/4 46/85/4 1/2/4 37/68/4
f 52/94/2 90/132/2 54/96/2 21/43/2
f 14/31/2 44/82/2 90/132/2 52/94/2
f 44/82/2 5/10/2 49/90/2 90/132/2
f 28/52/2 91/133/2 53/95/2 10/24/2
f 6/14/2 32/59/2 91/133/2 28/52/2
f 32/59/2 14/31/2 52/94/2 91/133/2
f 40/73/2 92/134/2 29/53/2 2/3/2
f 10/24/2 53/95/2 92/134/2 40/73/2
f 53/95/2 21/43/2 51/93/2 92/134/2
f 51/93/2 93/135/2 41/75/2 11/25/2
f 21/43/2 54/96/2 93/135/2 51/93/2
f 54/96/2 19/41/2 37/69/2 93/135/2
f 55/97/6 13/30/6 31/58/6 89/131/6 57/99/6 88/130/6 29/54/6 11/26/6 56/98/6 22/44/6
f 50/92/5 4/8/5 35/65/5 95/137/5 62/104/5 84/126/5 40/74/5 2/4/5 38/70/5 20/42/5
f 63/105/3 14/32/3 32/60/3 83/125/3 65/107/3 82/124/3 42/78/3 12/27/3 64/106/3 24/46/3
f 67/109/1 97/139/1 30/56/1 12/28/1
f 25/47/1 70/112/1 97/139/1 67/109/1
f 70/112/1 15/34/1 33/61/1 97/139/1
f 48/89/4 7/17/4 33/62/4 98/140/4 74/116/4 75/117/4 49/91/4 5/11/4 36/67/4 18/39/4
f 34/63/6 3/6/6 43/80/6 94/136/6 58/100/6 87/129/6 41/76/6 1/2/6 46/85/6 16/35/6
